<mxfile host="app.diagrams.net" modified="2021-06-11T06:47:37.004Z" agent="5.0 (Windows NT 10.0; Win64; x64) AppleWebKit/537.36 (KHTML, like Gecko) Chrome/91.0.4472.77 Safari/537.36" etag="8TpbJZTvkKpREpzLymu8" version="14.7.7" type="github">
  <diagram id="6a731a19-8d31-9384-78a2-239565b7b9f0" name="Page-1">
    <mxGraphModel dx="1422" dy="882" grid="1" gridSize="10" guides="1" tooltips="1" connect="1" arrows="1" fold="1" page="1" pageScale="1" pageWidth="1169" pageHeight="827" background="none" math="0" shadow="0">
      <root>
        <mxCell id="0" />
        <mxCell id="1" parent="0" />
        <mxCell id="2" value="开始" style="shape=mxgraph.flowchart.terminator;strokeWidth=2;gradientColor=none;gradientDirection=north;fontStyle=0;html=1;" parent="1" vertex="1">
          <mxGeometry x="260" y="60" width="120" height="30" as="geometry" />
        </mxCell>
        <mxCell id="7" style="fontStyle=1;strokeColor=#003366;strokeWidth=1;html=1;" parent="1" source="2" edge="1">
          <mxGeometry relative="1" as="geometry">
            <mxPoint x="320" y="130" as="targetPoint" />
          </mxGeometry>
        </mxCell>
        <mxCell id="8" style="fontStyle=1;strokeColor=#003366;strokeWidth=1;html=1;exitX=0.5;exitY=1;exitDx=0;exitDy=0;" parent="1" source="noWKgFkb6oJTjKW2lA6C-58" edge="1">
          <mxGeometry relative="1" as="geometry">
            <mxPoint x="320" y="210" as="sourcePoint" />
            <mxPoint x="320" y="250" as="targetPoint" />
          </mxGeometry>
        </mxCell>
        <mxCell id="9" style="entryX=0.5;entryY=0;entryPerimeter=0;fontStyle=1;strokeColor=#003366;strokeWidth=1;html=1;" parent="1" edge="1">
          <mxGeometry relative="1" as="geometry">
            <mxPoint x="320" y="330" as="sourcePoint" />
            <mxPoint x="320" y="390" as="targetPoint" />
          </mxGeometry>
        </mxCell>
        <mxCell id="12" value="" style="edgeStyle=elbowEdgeStyle;elbow=horizontal;fontColor=#001933;fontStyle=1;strokeColor=#003366;strokeWidth=1;html=1;" parent="1" edge="1">
          <mxGeometry x="-0.5" y="23" width="100" height="100" as="geometry">
            <mxPoint x="319.5" y="470" as="sourcePoint" />
            <mxPoint x="320" y="527" as="targetPoint" />
          </mxGeometry>
        </mxCell>
        <mxCell id="25" value="" style="edgeStyle=elbowEdgeStyle;elbow=horizontal;exitX=0.5;exitY=1;exitPerimeter=0;fontStyle=1;strokeColor=#003366;strokeWidth=1;html=1;exitDx=0;exitDy=0;" parent="1" target="24" edge="1">
          <mxGeometry x="-15" y="-1" width="100" height="100" as="geometry">
            <mxPoint x="320" y="880" as="sourcePoint" />
            <mxPoint x="85" y="-1" as="targetPoint" />
          </mxGeometry>
        </mxCell>
        <mxCell id="noWKgFkb6oJTjKW2lA6C-58" value="打开定向界面" style="rounded=0;whiteSpace=wrap;html=1;strokeWidth=2;fillColor=#1681B5;" parent="1" vertex="1">
          <mxGeometry x="260" y="130" width="120" height="60" as="geometry" />
        </mxCell>
        <mxCell id="noWKgFkb6oJTjKW2lA6C-73" style="edgeStyle=elbowEdgeStyle;rounded=1;orthogonalLoop=1;jettySize=auto;html=1;entryX=0.5;entryY=0;entryDx=0;entryDy=0;entryPerimeter=0;" parent="1" target="noWKgFkb6oJTjKW2lA6C-72" edge="1">
          <mxGeometry relative="1" as="geometry">
            <mxPoint x="319" y="1200" as="sourcePoint" />
          </mxGeometry>
        </mxCell>
        <mxCell id="noWKgFkb6oJTjKW2lA6C-72" value="锁量结束" style="shape=mxgraph.flowchart.terminator;strokeWidth=2;gradientColor=none;gradientDirection=north;fontStyle=0;html=1;" parent="1" vertex="1">
          <mxGeometry x="259" y="1270" width="120" height="30" as="geometry" />
        </mxCell>
        <mxCell id="bzsVeNZKRRHdg6DFIDRZ-54" style="edgeStyle=orthogonalEdgeStyle;rounded=0;orthogonalLoop=1;jettySize=auto;html=1;entryX=0;entryY=0.5;entryDx=0;entryDy=0;fontColor=#FFFFFF;exitX=0.905;exitY=0.5;exitDx=0;exitDy=0;exitPerimeter=0;" edge="1" parent="1" source="bzsVeNZKRRHdg6DFIDRZ-52" target="bzsVeNZKRRHdg6DFIDRZ-53">
          <mxGeometry relative="1" as="geometry" />
        </mxCell>
        <mxCell id="bzsVeNZKRRHdg6DFIDRZ-52" value="过滤品牌不支持维度" style="shape=mxgraph.flowchart.data;strokeWidth=2;gradientDirection=north;fontStyle=0;html=1;strokeColor=#006EAF;fontColor=#ffffff;fillColor=#1681B5;" vertex="1" parent="1">
          <mxGeometry x="239.5" y="250" width="159" height="80" as="geometry" />
        </mxCell>
        <mxCell id="bzsVeNZKRRHdg6DFIDRZ-53" value="屏蔽以下类别&lt;br&gt;1. 流量定向&lt;br&gt;2. 流量类别&lt;br&gt;3. 流量包&lt;br&gt;4. 天气" style="shape=process;whiteSpace=wrap;html=1;backgroundOutline=1;strokeWidth=2;align=left;fontColor=#FFFFFF;fillColor=#1681B5;strokeColor=#006EAF;" vertex="1" parent="1">
          <mxGeometry x="479.5" y="250" width="150" height="80" as="geometry" />
        </mxCell>
        <mxCell id="bzsVeNZKRRHdg6DFIDRZ-55" value="组装品牌支持&lt;br&gt;标签列表" style="shape=mxgraph.flowchart.data;strokeWidth=2;gradientDirection=north;fontStyle=0;html=1;strokeColor=#006EAF;fontColor=#ffffff;fillColor=#1681B5;" vertex="1" parent="1">
          <mxGeometry x="240.5" y="390" width="159" height="80" as="geometry" />
        </mxCell>
        <mxCell id="bzsVeNZKRRHdg6DFIDRZ-65" style="edgeStyle=orthogonalEdgeStyle;rounded=0;orthogonalLoop=1;jettySize=auto;html=1;entryX=0.5;entryY=0;entryDx=0;entryDy=0;fontColor=#FFFFFF;" edge="1" parent="1" source="bzsVeNZKRRHdg6DFIDRZ-56">
          <mxGeometry relative="1" as="geometry">
            <mxPoint x="320" y="670" as="targetPoint" />
          </mxGeometry>
        </mxCell>
        <mxCell id="bzsVeNZKRRHdg6DFIDRZ-56" value="组装品牌支持&lt;br&gt;APP列表" style="shape=mxgraph.flowchart.data;strokeWidth=2;gradientDirection=north;fontStyle=0;html=1;strokeColor=#006EAF;fontColor=#ffffff;fillColor=#1681B5;" vertex="1" parent="1">
          <mxGeometry x="240.5" y="530" width="159" height="80" as="geometry" />
        </mxCell>
        <mxCell id="bzsVeNZKRRHdg6DFIDRZ-59" style="edgeStyle=orthogonalEdgeStyle;rounded=0;orthogonalLoop=1;jettySize=auto;html=1;entryX=0;entryY=0.5;entryDx=0;entryDy=0;fontColor=#FFFFFF;exitX=0.905;exitY=0.5;exitDx=0;exitDy=0;exitPerimeter=0;" edge="1" parent="1" target="bzsVeNZKRRHdg6DFIDRZ-60" source="bzsVeNZKRRHdg6DFIDRZ-56">
          <mxGeometry relative="1" as="geometry">
            <mxPoint x="400" y="570" as="sourcePoint" />
          </mxGeometry>
        </mxCell>
        <mxCell id="bzsVeNZKRRHdg6DFIDRZ-60" value="根据运营算法约定,取262appID" style="shape=process;whiteSpace=wrap;html=1;backgroundOutline=1;strokeWidth=2;align=left;fontColor=#FFFFFF;fillColor=#1681B5;strokeColor=#006EAF;" vertex="1" parent="1">
          <mxGeometry x="479.5" y="530" width="150" height="80" as="geometry" />
        </mxCell>
        <mxCell id="bzsVeNZKRRHdg6DFIDRZ-61" value="根据运营约定去179个标签" style="shape=process;whiteSpace=wrap;html=1;backgroundOutline=1;strokeWidth=2;align=left;fontColor=#FFFFFF;fillColor=#1681B5;strokeColor=#006EAF;" vertex="1" parent="1">
          <mxGeometry x="479.5" y="390" width="150" height="80" as="geometry" />
        </mxCell>
        <mxCell id="bzsVeNZKRRHdg6DFIDRZ-62" style="edgeStyle=orthogonalEdgeStyle;rounded=0;orthogonalLoop=1;jettySize=auto;html=1;entryX=0;entryY=0.5;entryDx=0;entryDy=0;fontColor=#FFFFFF;exitX=0.905;exitY=0.5;exitDx=0;exitDy=0;exitPerimeter=0;" edge="1" target="bzsVeNZKRRHdg6DFIDRZ-61" parent="1">
          <mxGeometry relative="1" as="geometry">
            <mxPoint x="384.395" y="430" as="sourcePoint" />
          </mxGeometry>
        </mxCell>
        <mxCell id="bzsVeNZKRRHdg6DFIDRZ-70" style="edgeStyle=orthogonalEdgeStyle;rounded=0;orthogonalLoop=1;jettySize=auto;html=1;entryX=0.5;entryY=0;entryDx=0;entryDy=0;entryPerimeter=0;fontColor=#FFFFFF;" edge="1" parent="1" source="bzsVeNZKRRHdg6DFIDRZ-67" target="bzsVeNZKRRHdg6DFIDRZ-69">
          <mxGeometry relative="1" as="geometry" />
        </mxCell>
        <mxCell id="bzsVeNZKRRHdg6DFIDRZ-67" value="返回元数据" style="shape=mxgraph.flowchart.data;strokeWidth=2;gradientDirection=north;fontStyle=0;html=1;strokeColor=#006EAF;fontColor=#ffffff;fillColor=#1681B5;" vertex="1" parent="1">
          <mxGeometry x="239.5" y="670" width="159" height="80" as="geometry" />
        </mxCell>
        <mxCell id="bzsVeNZKRRHdg6DFIDRZ-69" value="结束" style="shape=mxgraph.flowchart.terminator;strokeWidth=2;gradientColor=none;gradientDirection=north;fontStyle=0;html=1;" vertex="1" parent="1">
          <mxGeometry x="259" y="797" width="120" height="30" as="geometry" />
        </mxCell>
      </root>
    </mxGraphModel>
  </diagram>
</mxfile>
